<svg xmlns="http://www.w3.org/2000/svg" aria-hidden="true" style="position:absolute;width:0;height:0;overflow:hidden">
  <defs>
    <symbol id="icon-close-black" viewBox="0 0 32 32">
      <path d="M32 3.224l-3.224-3.224-12.776 12.776-12.776-12.776-3.224 3.224 12.776 12.776-12.776 12.776 3.224 3.224 12.776-12.776 12.776 12.776 3.224-3.224-12.776-12.776 12.776-12.776z"></path>
    </symbol>
    <symbol id="icon-antenna" viewBox="0 0 32 32">
      <path fill="#2e2f42" d="m30.773 22.098-8.443-8.505.937-4.615c.242.094.499.144.758.146h.006a2.159 2.159 0 1 0-2.008-1.435l-4.96.605L8.972.161a.534.534 0 0 0-.377-.16.532.532 0 0 0-.373.155L6.709 1.66a.534.534 0 0 0 0 .754l.814.826a14.943 14.943 0 0 0 2.519 17.663.513.513 0 0 0 .146.098c-.034.18-.051.364-.052.547v6.187h-6.4a2.67 2.67 0 0 0-2.667 2.667v1.067c0 .295.239.533.533.533h24.533a.533.533 0 0 0 .533-.533v-1.067a2.67 2.67 0 0 0-2.667-2.667h-6.4v-2.742a15.09 15.09 0 0 0 3.049.32 14.854 14.854 0 0 0 7.04-1.783l.818.823a.534.534 0 0 0 .377.16.532.532 0 0 0 .373-.155l1.513-1.504a.534.534 0 0 0 0-.754zM23.28 6.233a1.067 1.067 0 1 1 .753 1.822h-.003a1.067 1.067 0 0 1-.747-1.823h-.002zm-1.256 3.505-.598 2.946-1.175-1.182 1.774-1.763zm-.605-.902-1.92 1.909-1.485-1.493 3.405-.415zM24.004 28.8a1.6 1.6 0 0 1 1.6 1.6v.533H2.137V30.4a1.6 1.6 0 0 1 1.6-1.6h20.267zm-7.467-2.133v1.067h-5.333v-1.067h5.333zM11.204 25.6v-4.053c0-1.294 1.196-2.347 2.667-2.347s2.667 1.053 2.667 2.347V25.6h-5.333zm6.4-1.696v-2.357c0-1.882-1.675-3.413-3.733-3.413a3.8 3.8 0 0 0-3.281 1.786A13.87 13.87 0 0 1 8.311 4.033l18.602 18.708a13.818 13.818 0 0 1-9.309 1.163zm11.289-.684L7.836 2.039l.755-.752 7.935 7.98c.004 0 .006.007.01.01l13.115 13.191-.757.752z" style="fill:var(--color1, #2e2f42)"/>
      <path fill="#4d5ae5" d="M13.876 20.267h-.005a1.6 1.6 0 1 0-.004 3.2h.005a1.6 1.6 0 1 0 .004-3.2zm.373 1.978a.534.534 0 0 1-.752-.756.534.534 0 0 1 .373-.155.534.534 0 0 1 .374.911h.005z" style="fill:var(--color2, #4d5ae5)"/>
    </symbol>
    <symbol id="icon-astronaut" viewBox="0 0 32 32">
      <path fill="#4d5ae5" d="M31.974 4.524a.534.534 0 0 0-.43-.363l-1.91-.278-.855-1.731c-.179-.365-.777-.365-.956 0l-.855 1.731-1.91.278a.535.535 0 0 0-.296.91l1.383 1.348-.326 1.903c-.034.2.048.402.212.522a.53.53 0 0 0 .562.04l1.709-.899 1.709.899a.536.536 0 0 0 .775-.563l-.326-1.903 1.383-1.348a.536.536 0 0 0 .135-.547zm-2.463 1.327a.534.534 0 0 0-.153.472l.191 1.114-1-.526a.533.533 0 0 0-.498 0l-1.001.526.191-1.114a.534.534 0 0 0-.153-.472l-.81-.789 1.119-.163a.532.532 0 0 0 .402-.292l.5-1.013.5 1.013a.535.535 0 0 0 .402.292l1.119.163-.809.789zm-3.377 14.671h-1.067v1.067h1.067v-1.067zm0 2.134h-1.067v1.067h1.067v-1.067zm1.066-1.067h-1.067v1.067H27.2v-1.067zm-2.133 0H24v1.067h1.067v-1.067zm-2.667 4.8h-1.067v1.067H22.4v-1.067zm0 2.133h-1.067v1.067H22.4v-1.067zm1.067-1.066H22.4v1.067h1.067v-1.067zm-2.134 0h-1.067v1.067h1.067v-1.067zM16 24.256h-1.067v1.067H16v-1.067zm0 2.133h-1.067v1.067H16v-1.067zm1.067-1.067H16v1.067h1.067v-1.067zm-2.134 0h-1.067v1.067h1.067v-1.067zm-9.066-19.2H4.8v1.067h1.067V6.122zm0 2.133H4.8v1.067h1.067V8.255z" style="fill:var(--color2, #4d5ae5)"/>
      <path fill="#4d5ae5" d="M6.933 7.189H5.866v1.067h1.067V7.189zm-2.133 0H3.733v1.067H4.8V7.189z" style="fill:var(--color2, #4d5ae5)"/>
      <path fill="#2e2f42" d="M24.715 14.159a1.775 1.775 0 0 0-1.188-.705 1.778 1.778 0 0 0-1.34.352l-1.252.96-1.898 1.417-1.358-.541c2.421-1.086 4.114-3.508 4.114-6.32 0-3.823-3.123-6.933-6.961-6.933s-6.961 3.11-6.961 6.933a6.86 6.86 0 0 0 1.12 3.758l-2.764-.024h-.005c-.009 0-.015.004-.023.005a.515.515 0 0 0-.155.031l-.038.013c-.006.003-.013.003-.019.006l-3.233 1.596-.001.001-1.893.911a.397.397 0 0 0-.063.035 1.779 1.779 0 0 0-.598 2.295c.22.429.595.745 1.056.889a1.776 1.776 0 0 0 1.378-.128l1.388-.738 2.264-1.169 1.357-.008L2.2 22.211l-.002.001-1.339 1.333c-.316.315-.49.732-.49 1.178s.174.863.49 1.179c.325.323.752.485 1.179.485s.854-.162 1.18-.485l1.314-1.309 1.741-1.3.901.897-1.762 1.754-.002.001-1.339 1.333c-.316.315-.49.732-.49 1.178s.174.863.49 1.179c.325.323.753.485 1.18.485s.855-.162 1.18-.485l3.482-3.467.001-.002 1.01-1-.004-.004c.006-.006.015-.009.022-.015l5.166-5.658 3.471.494a.52.52 0 0 0 .262-.033c.018-.006.033-.015.05-.023.019-.01.039-.015.058-.027l3.213-2.133c.012-.008.018-.021.029-.029.013-.01.029-.014.041-.026l1.271-1.191c.662-.62.753-1.635.212-2.362zM2.13 17.77a.714.714 0 0 1-.558.052.717.717 0 0 1-.213-1.26l1.314-.632.449 1.313-.992.527zm3.498-1.828-1.548.8-.439-1.283 2.027-1.001-.04 1.484zm15.099-6.62a5.79 5.79 0 0 1-.599 2.559l-4.181-1.899a1.863 1.863 0 0 0-.788-1.388l1.464-4.86c2.378.756 4.105 2.974 4.105 5.588zm-11.789 0c0-3.235 2.644-5.867 5.894-5.867.253 0 .5.021.745.052l-1.432 4.754c-.019-.001-.037-.006-.057-.006-1.033 0-1.873.837-1.873 1.867s.84 1.867 1.873 1.867c.694 0 1.294-.383 1.618-.945l3.862 1.755a5.894 5.894 0 0 1-4.737 2.39c-3.25 0-5.894-2.632-5.894-5.867zm5.956.8c0 .441-.362.8-.806.8s-.806-.359-.806-.8c0-.441.362-.8.806-.8s.806.359.806.8zM2.465 25.146a.608.608 0 0 1-.854.001.592.592 0 0 1 0-.844l.962-.958.851.848-.959.955zm3.214 3.734a.608.608 0 0 1-.855.001.592.592 0 0 1 0-.844l.963-.959.852.848-.96.955zm3.481-3.469-.002.001-1.765 1.76-.852-.848 1.763-1.755.002-.001c.04-.04.065-.088.09-.135.007-.014.02-.026.026-.04.017-.041.019-.085.026-.129.003-.025.014-.047.014-.073 0-.036-.013-.07-.02-.106-.006-.032-.006-.065-.019-.095a.55.55 0 0 0-.091-.138c-.01-.012-.014-.027-.025-.038h-.001l-.001-.002-1.607-1.6c-.017-.017-.039-.024-.058-.038a.507.507 0 0 0-.087-.058.515.515 0 0 0-.093-.033.507.507 0 0 0-.103-.02.5.5 0 0 0-.095.005.53.53 0 0 0-.104.02.477.477 0 0 0-.094.045c-.02.011-.042.015-.061.029L4.23 23.486l-.901-.897 2.399-2.386 4.361 4.289-.928.919zm6.819-7.017c-.015-.002-.03.004-.045.003a.556.556 0 0 0-.3.075.492.492 0 0 0-.083.061c-.013.011-.028.017-.04.029l-4.698 5.146-4.328-4.257 2.833-2.818a.534.534 0 0 0-.379-.911v-.001l-2.219.013.028-1.607 3.104.027a6.947 6.947 0 0 0 4.981 2.101c.437 0 .864-.045 1.279-.123.04.032.079.065.13.085l2.41.96.152.758.178.885-3.003-.427zm4.041.178-.313-1.558 1.446-1.08.947 1.257-2.08 1.381zm3.754-2.831-.838.785-.931-1.236.831-.637a.735.735 0 0 1 .543-.143.718.718 0 0 1 .48.284.713.713 0 0 1-.085.947z" style="fill:var(--color1, #2e2f42)"/>
      <path fill="#2e2f42" d="m13.602 18.544-2.143-2.133a.534.534 0 0 0-.753 0l-2.142 2.133a.537.537 0 0 0 0 .756l2.142 2.133a.536.536 0 0 0 .753 0l2.143-2.133a.535.535 0 0 0 0-.756zm-2.519 1.759-1.387-1.381 1.387-1.381 1.387 1.381-1.387 1.381zm6.081-15.232-.258 1.036c.071.018 1.738.452 1.738 2.149h1.067c0-2.017-1.666-2.965-2.547-3.185zm2.547 4.251h-1.067v1.067h1.067V9.322z" style="fill:var(--color1, #2e2f42)"/>
    </symbol>
    <symbol id="icon-clock" viewBox="0 0 32 32">
      <path fill="#2e2f42" d="M31.297 15.301C31.295 6.849 24.442-.002 15.989 0S.686 6.855.688 15.308a15.304 15.304 0 0 0 10.649 14.576.662.662 0 0 0 .529-.065.637.637 0 0 0 .283-.356l3.865-12.25a1.912 1.912 0 1 0-.84-3.635l-5.106-5.107a.637.637 0 0 0-.902.902l5.103 5.109a1.876 1.876 0 0 0 .536 2.309l-3.683 11.673C3.844 25.783.118 17.71 2.799 10.432S13.553-.572 20.831 2.109c7.278 2.681 11.004 10.754 8.323 18.032a14.042 14.042 0 0 1-7.462 7.973l-.398-1.874a.637.637 0 0 0-1.049-.344l-3.837 3.426a.637.637 0 0 0 .231 1.084l4.899 1.564a.638.638 0 0 0 .819-.74l-.391-1.839a15.255 15.255 0 0 0 9.329-14.089zm-15.305-.637a.638.638 0 1 1 0 1.277.638.638 0 0 1 0-1.277zm2.101 14.864 2.184-1.948.603 2.84-2.787-.892z" style="fill:var(--color1, #2e2f42)"/>
      <path fill="#4d5ae5" d="M15.354 3.185V4.46a.638.638 0 1 0 1.276 0V3.185a.638.638 0 0 0-1.276 0zM3.876 14.664a.638.638 0 0 0 0 1.276h1.275a.638.638 0 1 0 0-1.276H3.876zm24.232 1.275a.638.638 0 1 0 0-1.276h-1.275a.638.638 0 0 0 0 1.276h1.275z" style="fill:var(--color2, #4d5ae5)"/>
    </symbol>
    <symbol id="icon-diagram" viewBox="0 0 32 32">
      <path fill="#4d5ae5" d="M14.926 14.965h1.066v4.798h-1.066v-4.797zm4.264 2.132h1.066v2.665H19.19v-2.665zm-8.529 1.599h1.066v1.066h-1.066v-1.066zm-3.198-.533h1.066v1.599H7.463v-1.599z" style="fill:var(--color2, #4d5ae5)"/>
      <path fill="#2e2f42" d="M1.599 28.291h25.587a1.6 1.6 0 0 0 1.599-1.599V24.56a1.6 1.6 0 0 0-1.599-1.599h-.533V9.668L29.681 6.8a1.608 1.608 0 1 0-.746-.763L26.654 8.2V6.97a1.6 1.6 0 0 0-1.599-1.599H3.733A1.6 1.6 0 0 0 2.134 6.97v15.992h-.533a1.6 1.6 0 0 0-1.599 1.599v2.132a1.6 1.6 0 0 0 1.599 1.599zM30.384 4.837a.533.533 0 1 1 0 1.067.533.533 0 0 1 0-1.067zM3.198 6.969c0-.294.239-.533.533-.533h21.322c.294 0 .533.239.533.533v2.239l-1.066 1.013V8.035a.533.533 0 0 0-.533-.533H4.797a.533.533 0 0 0-.533.533v13.326c0 .294.239.533.533.533h19.19a.533.533 0 0 0 .533-.533v-9.674l1.066-1.01v12.284H3.198V6.969zm4.798 6.93a1.598 1.598 0 1 0 1.107 2.749l1.853.93a.532.532 0 0 0 .636-.123l3.939-4.431 3.872 2.901a.533.533 0 0 0 .686-.039l3.365-3.188v8.131H5.33V8.569h18.124v2.66l-3.771 3.572-3.904-2.927a.533.533 0 0 0-.718.072l-3.993 4.493-1.493-.746c.011-.064.018-.129.02-.193a1.6 1.6 0 0 0-1.599-1.599zm.533 1.599a.533.533 0 1 1-1.067 0 .533.533 0 0 1 1.067 0zm3.198 8.529h5.331v.533a.533.533 0 0 1-.533.533h-4.264a.533.533 0 0 1-.533-.533v-.533zm-10.661.533c0-.294.239-.533.533-.533h9.062v.533a1.6 1.6 0 0 0 1.599 1.599h4.264a1.6 1.6 0 0 0 1.599-1.599v-.533h9.062c.294 0 .533.239.533.533v2.132a.533.533 0 0 1-.533.533H1.598a.533.533 0 0 1-.533-.533V24.56z" style="fill:var(--color1, #2e2f42)"/>
    </symbol>
    <symbol id="icon-facebook" viewBox="0 0 32 32">
      <path fill="#f4f4fd" d="M21.329 5.313h2.921V.225C23.746.156 22.013 0 19.994 0c-4.212 0-7.097 2.649-7.097 7.519V12H8.249v5.688h4.648V32h5.699V17.689h4.46l.708-5.688h-5.169V8.082c.001-1.644.444-2.769 2.735-2.769z" style="fill:var(--color3, #f4f4fd)"/>
    </symbol>
    <symbol id="icon-instagram" viewBox="0 0 32 32">
      <path fill="#f4f4fd" d="M31.969 9.408c-.075-1.7-.35-2.869-.744-3.882a7.803 7.803 0 0 0-1.85-2.838A7.867 7.867 0 0 0 26.543.844C25.524.45 24.361.175 22.661.1 20.948.019 20.404 0 16.06 0s-4.888.019-6.595.094c-1.7.075-2.869.35-3.882.744a7.803 7.803 0 0 0-2.838 1.85A7.867 7.867 0 0 0 .901 5.52C.507 6.539.232 7.702.157 9.402c-.081 1.713-.1 2.257-.1 6.601s.019 4.888.094 6.595c.075 1.7.35 2.869.744 3.882a7.895 7.895 0 0 0 1.85 2.838 7.867 7.867 0 0 0 2.832 1.844c1.019.394 2.182.669 3.882.744 1.706.075 2.25.094 6.595.094s4.888-.018 6.595-.094c1.7-.075 2.869-.35 3.882-.744a8.181 8.181 0 0 0 4.682-4.682c.394-1.019.669-2.182.744-3.882.075-1.707.094-2.251.094-6.595s-.006-4.888-.081-6.595zm-2.882 13.065c-.069 1.563-.331 2.407-.55 2.969a5.307 5.307 0 0 1-3.038 3.038c-.563.219-1.413.481-2.969.55-1.688.075-2.194.094-6.464.094s-4.782-.018-6.464-.094c-1.563-.069-2.407-.331-2.969-.55a4.926 4.926 0 0 1-1.838-1.194 4.974 4.974 0 0 1-1.194-1.838c-.219-.563-.481-1.413-.55-2.969-.075-1.688-.094-2.194-.094-6.464s.019-4.782.094-6.464c.069-1.563.331-2.407.55-2.969a4.868 4.868 0 0 1 1.2-1.838A4.974 4.974 0 0 1 6.639 3.55c.563-.219 1.413-.481 2.969-.55 1.688-.075 2.194-.094 6.464-.094 4.276 0 4.782.019 6.464.094 1.563.069 2.407.331 2.969.55a4.914 4.914 0 0 1 1.838 1.194 4.974 4.974 0 0 1 1.194 1.838c.219.563.481 1.413.55 2.969.075 1.688.094 2.194.094 6.464s-.019 4.77-.094 6.457z" style="fill:var(--color3, #f4f4fd)"/>
      <path fill="#f4f4fd" d="M16.059 7.782c-4.538 0-8.22 3.682-8.22 8.22s3.682 8.22 8.22 8.22 8.22-3.682 8.22-8.22-3.682-8.22-8.22-8.22zm0 13.553a5.333 5.333 0 0 1 0-10.664 5.333 5.333 0 0 1 0 10.664zM26.524 7.457a1.919 1.919 0 1 1-3.838 0 1.919 1.919 0 0 1 3.838 0z" style="fill:var(--color3, #f4f4fd)"/>
    </symbol>
    <symbol id="icon-linkedin" viewBox="0 0 32 32">
      <path fill="#f4f4fd" d="M31.992 32v-.001H32V20.263c0-5.741-1.236-10.164-7.948-10.164-3.227 0-5.392 1.771-6.276 3.449h-.093v-2.913h-6.364v21.364h6.627V21.42c0-2.785.528-5.479 3.977-5.479 3.399 0 3.449 3.179 3.449 5.657v10.401h6.62zM.528 10.636h6.635V32H.528V10.636zM3.843 0C1.722 0 0 1.721 0 3.843s1.721 3.879 3.843 3.879c2.121 0 3.843-1.757 3.843-3.879A3.846 3.846 0 0 0 3.843 0z" style="fill:var(--color3, #f4f4fd)"/>
    </symbol>
    <symbol id="icon-logo3" viewBox="0 0 59 32">
    <path d="M21.034 28.127c0.009 0 0.018 0.002 0.026 0.006s0.016 0.008 0.023 0.013l-0-0 0.126 0.119c-0.099 0.096-0.216 0.172-0.347 0.223l-0.007 0.002c-0.16 0.057-0.331 0.085-0.503 0.081-0.008 0-0.017 0-0.026 0-0.16 0-0.314-0.028-0.457-0.079l0.009 0.003c-0.138-0.049-0.256-0.122-0.357-0.213l0.001 0.001c-0.097-0.090-0.175-0.2-0.228-0.323l-0.002-0.006c-0.051-0.121-0.081-0.262-0.081-0.41 0-0.004 0-0.009 0-0.013v0.001c-0-0.004-0-0.009-0-0.014 0-0.148 0.032-0.289 0.090-0.416l-0.003 0.006c0.055-0.122 0.138-0.234 0.245-0.329 0.107-0.092 0.233-0.165 0.37-0.212l0.008-0.002c0.141-0.048 0.303-0.076 0.471-0.076 0.006 0 0.011 0 0.017 0h-0.001c0.154-0.003 0.309 0.021 0.453 0.069 0.125 0.047 0.24 0.111 0.339 0.19l-0.106 0.127c-0.008 0.009-0.016 0.017-0.026 0.023l-0 0c-0.011 0.006-0.023 0.010-0.037 0.010-0.002 0-0.004-0-0.006-0l0 0c-0.017-0.001-0.033-0.006-0.046-0.014l0 0-0.057-0.034-0.078-0.043c-0.072-0.035-0.156-0.061-0.244-0.075l-0.005-0.001c-0.052-0.008-0.111-0.013-0.172-0.013-0.006 0-0.011 0-0.017 0h0.001c-0.004-0-0.008-0-0.012-0-0.121 0-0.237 0.021-0.345 0.059l0.007-0.002c-0.106 0.037-0.197 0.091-0.275 0.16l0.001-0.001c-0.079 0.074-0.139 0.16-0.178 0.254-0.041 0.095-0.065 0.207-0.065 0.323 0 0.004 0 0.008 0 0.012v-0.001c-0 0.004-0 0.008-0 0.013 0 0.118 0.024 0.23 0.067 0.332l-0.002-0.006c0.081 0.193 0.238 0.34 0.432 0.407l0.005 0.002c0.103 0.037 0.213 0.055 0.325 0.054 0.065 0.001 0.129-0.003 0.193-0.011 0.16-0.016 0.303-0.079 0.418-0.175l-0.001 0.001c0.016-0.013 0.037-0.021 0.060-0.022h0zM24.678 27.531c0.002 0.143-0.027 0.286-0.085 0.419-0.056 0.129-0.137 0.238-0.237 0.325l-0.001 0.001c-0.105 0.093-0.232 0.166-0.373 0.213-0.143 0.048-0.308 0.075-0.479 0.075s-0.336-0.028-0.49-0.079l0.011 0.003c-0.143-0.050-0.267-0.123-0.373-0.215l0.001 0.001c-0.101-0.090-0.182-0.199-0.237-0.323l-0.002-0.006c-0.054-0.124-0.085-0.268-0.085-0.42s0.031-0.296 0.088-0.427l-0.003 0.007c0.054-0.122 0.135-0.234 0.24-0.33 0.105-0.088 0.228-0.159 0.363-0.203l0.008-0.002c0.309-0.103 0.65-0.103 0.959 0 0.14 0.049 0.267 0.121 0.372 0.214 0.199 0.178 0.324 0.435 0.324 0.721 0 0.009-0 0.018-0 0.026l0-0.001zM24.346 27.531c0.003-0.114-0.017-0.229-0.059-0.337-0.077-0.196-0.234-0.345-0.431-0.409l-0.005-0.001c-0.104-0.035-0.224-0.055-0.349-0.055s-0.244 0.020-0.357 0.058l0.008-0.002c-0.104 0.036-0.193 0.090-0.267 0.16l0-0c-0.073 0.068-0.131 0.152-0.169 0.247l-0.002 0.005c-0.038 0.1-0.060 0.216-0.060 0.337s0.022 0.237 0.062 0.344l-0.002-0.007c0.035 0.093 0.094 0.179 0.17 0.252 0.074 0.069 0.166 0.123 0.267 0.158 0.225 0.072 0.472 0.072 0.697 0 0.101-0.035 0.193-0.089 0.266-0.158 0.076-0.073 0.133-0.159 0.169-0.252 0.038-0.093 0.060-0.201 0.060-0.314 0-0.008-0-0.016-0-0.024l0 0.001zM27.163 27.885l0.033 0.075c0.013-0.027 0.024-0.051 0.037-0.075 0.014-0.029 0.027-0.053 0.043-0.077l-0.001 0.002 0.806-1.251c0.016-0.022 0.030-0.035 0.046-0.040s0.035-0.007 0.054-0.007c0.004 0 0.009 0 0.013 0l-0.001-0h0.238v2.036h-0.282v-1.56c-0.001-0.011-0.001-0.023-0.001-0.035s0-0.025 0.001-0.037l-0 0.002-0.811 1.269c-0.011 0.020-0.027 0.036-0.047 0.046l-0.001 0c-0.020 0.011-0.043 0.017-0.068 0.017-0 0-0.001 0-0.001 0h-0.046c-0.001 0-0.001 0-0.002 0-0.025 0-0.048-0.006-0.069-0.018l0.001 0c-0.020-0.011-0.036-0.026-0.047-0.045l-0-0.001-0.834-1.278v1.634h-0.273v-2.032h0.238c0.003-0 0.006-0 0.010-0 0.020 0 0.039 0.003 0.057 0.007l-0.002-0c0.019 0.008 0.035 0.021 0.044 0.038l0 0 0.823 1.253c0.017 0.023 0.030 0.048 0.041 0.073zM30.197 27.784v0.762h-0.315v-2.033h0.703c0.133-0.002 0.266 0.013 0.393 0.045 0.102 0.025 0.197 0.067 0.278 0.126 0.067 0.052 0.121 0.12 0.156 0.197l0.001 0.003c0.037 0.083 0.055 0.171 0.054 0.26 0 0.003 0 0.006 0 0.009 0 0.185-0.089 0.35-0.227 0.453l-0.001 0.001c-0.079 0.060-0.173 0.106-0.274 0.134l-0.006 0.001c-0.107 0.030-0.229 0.047-0.355 0.047-0.009 0-0.017-0-0.026-0l-0.38-0.006zM30.197 27.566h0.382c0.083 0.001 0.166-0.010 0.245-0.031 0.067-0.019 0.126-0.049 0.178-0.088l-0.001 0.001c0.089-0.071 0.145-0.179 0.145-0.301 0-0.002 0-0.003-0-0.005v0c0-0.006 0.001-0.013 0.001-0.021 0-0.053-0.012-0.103-0.034-0.147l0.001 0.002c-0.027-0.055-0.064-0.102-0.11-0.138l-0.001-0.001c-0.106-0.070-0.235-0.111-0.374-0.111-0.017 0-0.035 0.001-0.052 0.002l0.002-0h-0.382v0.838zM34.437 28.549h-0.249c-0.001 0-0.003 0-0.004 0-0.024 0-0.046-0.007-0.065-0.019l0 0c-0.017-0.012-0.031-0.028-0.041-0.046l-0-0.001-0.214-0.492h-1.078l-0.222 0.491c-0.009 0.019-0.022 0.034-0.039 0.045l-0 0c-0.019 0.013-0.042 0.021-0.067 0.021-0.001 0-0.003-0-0.004-0h-0.249l0.946-2.036h0.328l0.959 2.036zM32.875 27.793h0.89l-0.375-0.829c-0.025-0.053-0.050-0.116-0.069-0.182l-0.002-0.009-0.036 0.106c-0.011 0.033-0.023 0.062-0.034 0.086l-0.373 0.829zM35.8 26.522c0.019 0.009 0.034 0.021 0.047 0.036l0 0 1.381 1.535v-1.581h0.282v2.036h-0.158c-0.002 0-0.004 0-0.006 0-0.021 0-0.041-0.004-0.060-0.012l0.001 0c-0.020-0.010-0.036-0.023-0.050-0.038l-0-0-1.378-1.534c0.001 0.011 0.001 0.023 0.001 0.035s-0 0.025-0.001 0.037l0-0.002v1.513h-0.282v-2.036h0.167c0.002-0 0.003-0 0.005-0 0.019 0 0.036 0.003 0.053 0.010l-0.001-0zM39.834 27.739v0.809h-0.315v-0.809l-0.872-1.226h0.282c0.002-0 0.005-0 0.007-0 0.023 0 0.044 0.006 0.061 0.018l-0-0c0.017 0.013 0.031 0.028 0.042 0.045l0 0.001 0.546 0.791c0.037 0.052 0.070 0.112 0.094 0.175l0.002 0.005 0.041-0.087c0.015-0.032 0.034-0.063 0.054-0.093l0.538-0.797c0.012-0.017 0.025-0.031 0.041-0.043l0-0c0.017-0.013 0.039-0.020 0.062-0.020 0.002 0 0.004 0 0.006 0h0.285l-0.874 1.232zM27.007 23.095c0.137 0.015 0.276 0.027 0.417 0.038 2.129-0.813 3.929-2.145 5.177-3.828s1.887-3.642 1.838-5.634l-2.345-2.004c0.477 2.121 0.254 4.313-0.645 6.331-0.898 2.018-2.436 3.783-4.441 5.097z"></path>
    <path d="M26.17 23.002l0.063 0.011c2.143-1.31 3.777-3.138 4.69-5.25s1.065-4.408 0.433-6.594l-3.341-2.854c1.351 2.346 1.895 4.972 1.569 7.571s-1.511 5.067-3.414 7.115zM37.5 16.024c-0.567 2.189-1.946 4.162-3.931 5.629-0.541 0.405-1.152 0.786-1.796 1.112l-0.071 0.033c1.616-0.406 3.102-1.123 4.342-2.097s2.202-2.178 2.811-3.52l-1.354-1.157z"></path>
    <path d="M36.969 15.702l-1.929-1.648c-0.037 1.879-0.662 3.715-1.811 5.318s-2.779 2.914-4.721 3.796h0.010c0.433 0 0.865-0.022 1.295-0.066 1.815-0.633 3.419-1.64 4.667-2.931s2.104-2.827 2.489-4.469zM26.449 7.112l-2.301-1.969c-2.057 0.679-3.827 1.873-5.077 3.426s-1.922 3.392-1.929 5.277c0.008 2.082 0.828 4.103 2.331 5.742s3.603 2.803 5.967 3.308c2.111-2.198 3.347-4.913 3.528-7.751s-0.702-5.651-2.52-8.032zM42.286 15.399c-0.009-2.47-1.161-4.838-3.206-6.585-2.044-1.747-4.815-2.731-7.706-2.739-0.007-0-0.016-0-0.025-0-1.388 0-2.723 0.227-3.97 0.647l0.088-0.026 14.091 12.039c0.459-0.98 0.727-2.127 0.729-3.337v-0.001z"></path>
    </symbol>
    <symbol id="icon-logo2" viewBox="0 0 59 32">
    <path d="M28.637 3.391h-0.078c-0.12-0.007-0.24-0.010-0.36-0.013h-0.26c-0.227 0-0.458 0.006-0.688 0.017-0.008-0.001-0.017-0.001-0.026-0.001s-0.018 0-0.027 0.001l0.001-0c-2.206 0.129-4.255 0.68-6.106 1.575l0.096-0.042-0.247 0.119v12.653l0.578-0.197c0.507-0.174 1.048-0.331 1.607-0.477 1.382-0.37 2.973-0.592 4.612-0.614l0.013-0v1.662c-0.218 0.001-0.43 0.007-0.641 0.019l0.033-0.001h-0.048c-1.299 0.073-2.516 0.268-3.688 0.575l0.129-0.029c-1.61 0.409-3.021 0.975-4.333 1.7l0.093-0.047v-16.227c1.281-0.761 2.762-1.382 4.331-1.784l0.118-0.026c1.256-0.338 2.7-0.535 4.189-0.541h0.247c0.292 0.007 0.577 0.021 0.845 0.041 0.705 0.050 1.403 0.161 2.089 0.333v1.636c-0.583-0.143-1.274-0.251-1.981-0.303l-0.042-0.002-0.042-0.003c-0.141-0.012-0.282-0.024-0.414-0.024zM31.516 5.063c0.363 0.028 0.739 0.041 1.119 0.041 1.569-0.006 3.086-0.212 4.533-0.594l-0.125 0.028c1.61-0.411 3.020-0.977 4.331-1.7l-0.094 0.047v15.937c-1.281 0.761-2.762 1.381-4.331 1.783l-0.118 0.026c-1.257 0.337-2.7 0.533-4.189 0.539h-0.004c-0.031 0-0.067 0-0.103 0-1.093 0-2.153-0.137-3.166-0.394l0.089 0.019v-16.041c0.246 0.057 0.499 0.109 0.756 0.153 0.422 0.071 0.867 0.123 1.301 0.155zM39.627 5.187l-0.578 0.194c-0.351 0.129-0.887 0.293-1.431 0.44l-0.177 0.041c-1.44 0.385-3.094 0.61-4.8 0.616h-0.004c-0.377 0-0.724-0.010-1.059-0.032l-0.461-0.030v13.015l0.396 0.034c0.367 0.033 0.746 0.049 1.127 0.049 1.347-0.006 2.649-0.184 3.89-0.514l-0.107 0.024c1.134-0.288 2.118-0.652 3.051-1.104l-0.094 0.041 0.247-0.119v-12.656z"></path>
    <path d="M20.421 25.835c-0.155-0.161-0.373-0.261-0.613-0.261-0.011 0-0.021 0-0.032 0.001l0.002-0c-0.004-0-0.008-0-0.013-0-0.129 0-0.252 0.026-0.365 0.072l0.006-0.002c-0.22 0.088-0.39 0.26-0.473 0.475l-0.002 0.006c-0.046 0.114-0.068 0.236-0.066 0.359v2.168c-0.006 0.153 0.024 0.305 0.085 0.445 0.051 0.111 0.125 0.21 0.217 0.291 0.086 0.073 0.188 0.126 0.297 0.154 0.106 0.029 0.215 0.045 0.324 0.045 0.121 0.001 0.24-0.025 0.35-0.075 0.325-0.145 0.548-0.465 0.549-0.837v-0.242h-0.567v0.193c0 0.004 0 0.009 0 0.013 0 0.065-0.012 0.127-0.035 0.183l0.001-0.003c-0.019 0.048-0.047 0.089-0.082 0.122l-0 0c-0.065 0.050-0.147 0.081-0.237 0.083h-0c-0.010 0.001-0.021 0.002-0.033 0.002-0.095 0-0.18-0.046-0.232-0.118l-0.001-0.001c-0.048-0.076-0.076-0.169-0.076-0.269 0-0.008 0-0.015 0-0.023l-0 0.001v-2.022c-0.003-0.112 0.021-0.223 0.070-0.324 0.052-0.080 0.142-0.133 0.244-0.133 0.012 0 0.023 0.001 0.035 0.002l-0.001-0c0.003-0 0.007-0 0.011-0 0.099 0 0.187 0.048 0.242 0.122l0.001 0.001c0.059 0.076 0.094 0.173 0.094 0.279 0 0.004-0 0.009-0 0.013v-0.001 0.187h0.561v-0.221c0-0.003 0-0.006 0-0.010 0-0.133-0.025-0.26-0.072-0.377l0.002 0.007c-0.044-0.119-0.109-0.22-0.19-0.306l0 0zM23.788 25.811c-0.173-0.147-0.398-0.237-0.644-0.239h-0c-0.115 0-0.23 0.021-0.338 0.061-0.234 0.084-0.418 0.256-0.517 0.475l-0.002 0.006c-0.057 0.132-0.086 0.275-0.083 0.42v2.079c-0.004 0.146 0.025 0.291 0.083 0.426 0.051 0.112 0.126 0.211 0.219 0.291 0.087 0.080 0.189 0.143 0.299 0.183 0.109 0.040 0.223 0.061 0.338 0.061 0.248-0.001 0.474-0.093 0.646-0.245l-0.001 0.001c0.090-0.081 0.163-0.18 0.214-0.291 0.058-0.134 0.086-0.279 0.083-0.426v-2.079c0-0.005 0-0.012 0-0.018 0-0.145-0.031-0.283-0.086-0.408l0.003 0.006c-0.053-0.119-0.125-0.22-0.213-0.304l-0-0zM23.523 28.614c0.001 0.010 0.001 0.021 0.001 0.032 0 0.106-0.044 0.201-0.114 0.269l-0 0c-0.072 0.060-0.165 0.097-0.267 0.097s-0.195-0.037-0.267-0.098l0.001 0c-0.070-0.068-0.114-0.163-0.114-0.268 0-0.012 0.001-0.023 0.002-0.035l-0 0.001v-2.079c-0.001-0.010-0.001-0.021-0.001-0.032 0-0.105 0.044-0.201 0.114-0.268l0-0c0.072-0.060 0.165-0.097 0.267-0.097s0.195 0.037 0.267 0.098l-0.001-0c0.070 0.068 0.114 0.163 0.114 0.268 0 0.011-0 0.023-0.002 0.034l0-0.001v2.080zM28.21 29.543v-3.937h-0.545l-0.716 2.084h-0.010l-0.722-2.083h-0.539v3.936h0.562v-2.394h0.010l0.55 1.693h0.281l0.555-1.693h0.010v2.394h0.562zM31.405 25.882c-0.086-0.097-0.196-0.171-0.318-0.215-0.115-0.039-0.248-0.061-0.386-0.061-0.008 0-0.015 0-0.023 0l0.001-0h-0.835v3.937h0.561v-1.538h0.289c0.014 0.001 0.030 0.001 0.047 0.001 0.168 0 0.326-0.040 0.466-0.111l-0.006 0.003c0.129-0.072 0.233-0.175 0.306-0.297l0.002-0.004c0.065-0.105 0.109-0.221 0.129-0.343 0.019-0.124 0.030-0.267 0.030-0.412 0-0.012-0-0.025-0-0.037l0 0.002c0.006-0.189-0.013-0.378-0.055-0.562-0.040-0.142-0.111-0.264-0.207-0.362l0 0zM31.115 27.082c-0.003 0.075-0.021 0.145-0.053 0.208l0.001-0.003c-0.032 0.060-0.082 0.108-0.143 0.137l-0.002 0.001c-0.069 0.032-0.15 0.050-0.235 0.050-0.010 0-0.020-0-0.030-0.001l0.001 0h-0.256v-1.338h0.289c0.008-0 0.017-0.001 0.027-0.001 0.082 0 0.16 0.018 0.229 0.051l-0.003-0.001c0.058 0.034 0.103 0.083 0.131 0.143l0.001 0.002c0.029 0.064 0.047 0.14 0.049 0.219v0.262c0 0.091 0.006 0.186 0 0.27h-0.006zM34.062 25.606h-0.46l-0.867 3.937h0.561l0.165-0.846h0.765l0.165 0.846h0.561l-0.889-3.937zM33.544 28.161l0.276-1.427h0.010l0.274 1.427h-0.561zM37.686 27.977h-0.010l-0.847-2.371h-0.539v3.937h0.561v-2.367h0.011l0.857 2.367h0.528v-3.936h-0.561v2.371zM41.113 25.606l-0.451 1.566h-0.011l-0.451-1.566h-0.593l0.77 2.273v1.663h0.561v-1.663l0.77-2.273h-0.594zM18.857 30.654h0.27v0.758h0.183v-0.759h0.269v-0.155h-0.722v0.156zM21.13 30.498l-0.354 0.914h0.195l0.075-0.208h0.365l0.078 0.208h0.2l-0.363-0.914h-0.195zM21.101 31.051l0.124-0.339 0.124 0.339h-0.249zM23.376 31.075h0.211v0.118c-0.059 0.048-0.135 0.077-0.217 0.077h-0c-0.004 0-0.009 0-0.013 0-0.073 0-0.139-0.034-0.181-0.087l-0-0c-0.043-0.061-0.068-0.136-0.068-0.218 0-0.007 0-0.014 0.001-0.021l-0 0.001c0-0.203 0.088-0.305 0.263-0.305 0.006-0.001 0.013-0.001 0.020-0.001 0.090 0 0.166 0.062 0.187 0.145l0 0.001 0.181-0.035c-0.039-0.178-0.167-0.269-0.387-0.269-0.004-0-0.008-0-0.012-0-0.118 0-0.226 0.045-0.308 0.118l0-0c-0.082 0.081-0.133 0.193-0.133 0.317 0 0.012 0 0.024 0.001 0.036l-0-0.002c-0 0.006-0 0.014-0 0.021 0 0.123 0.044 0.235 0.118 0.322l-0.001-0.001c0.081 0.083 0.194 0.135 0.319 0.135 0.010 0 0.020-0 0.029-0.001l-0.001 0c0.004 0 0.010 0 0.015 0 0.144 0 0.275-0.055 0.373-0.146l-0 0v-0.36h-0.396v0.154zM25.67 30.498h-0.185v0.914h0.64v-0.155h-0.455v-0.759zM27.61 30.498h-0.185v0.914h0.185v-0.914zM29.506 31.109l-0.374-0.61h-0.179v0.914h0.171v-0.597l0.367 0.597h0.184v-0.914h-0.17v0.611zM31.221 31.010h0.455v-0.155h-0.455v-0.2h0.49v-0.156h-0.675v0.914h0.694v-0.155h-0.509v-0.247zM35.378 30.859h-0.36v-0.36h-0.183v0.914h0.183v-0.4h0.36v0.4h0.184v-0.914h-0.184v0.361zM37.103 31.010h0.457v-0.155h-0.457v-0.2h0.491v-0.156h-0.674v0.914h0.693v-0.155h-0.509v-0.247zM39.442 31.010c0.159-0.025 0.24-0.109 0.24-0.254 0.001-0.008 0.002-0.017 0.002-0.026 0-0.073-0.036-0.138-0.091-0.177l-0.001-0c-0.068-0.035-0.147-0.055-0.232-0.055-0.013 0-0.025 0-0.037 0.001l0.002-0h-0.387v0.914h0.184v-0.382h0.036c0.004-0 0.010-0 0.015-0 0.036 0 0.070 0.008 0.101 0.022l-0.002-0.001c0.027 0.017 0.049 0.039 0.065 0.066l0.001 0.001 0.199 0.29h0.219l-0.111-0.178c-0.050-0.089-0.118-0.163-0.2-0.218l-0.002-0.001zM39.257 30.883h-0.135v-0.229h0.145c0.012-0.001 0.025-0.002 0.039-0.002 0.053 0 0.104 0.009 0.151 0.024l-0.003-0.001c0.025 0.022 0.040 0.054 0.040 0.089 0 0.039-0.019 0.074-0.048 0.096l-0 0c-0.046 0.015-0.098 0.023-0.153 0.023-0.012 0-0.024-0-0.036-0.001l0.002 0zM41.206 31.010h0.455v-0.155h-0.455v-0.2h0.491v-0.156h-0.677v0.914h0.694v-0.155h-0.509v-0.247z"></path>
    </symbol>
    <symbol id="icon-logo1" viewBox="0 0 59 32">
<path d="M21.714 4l4.005 3.815-7.433-0.003v18.509h19.429v-7.077l4 3.811v-19.054h-20zM37.538 18.795l-11.354-10.817h11.354v10.817zM34.013 23.613h-12.653v-12.448h0.894v11.606h11.759v0.843zM23.883 29.75l-0.471-0.97h-0.389l0.683 1.283v0.748h0.353v-0.748l0.684-1.283h-0.388l-0.471 0.97zM25.622 28.779h0.083l0.767 2.031h-0.368l-0.165-0.475h-0.786l-0.164 0.475h-0.367l0.765-2.031h0.234zM25.249 30.058h0.595l-0.297-0.862-0.297 0.862zM27.704 29.721c-0.006-0.007-0.020-0.025-0.035-0.044l-0.009-0.013c-0.045-0.058-0.086-0.123-0.119-0.193l-0.003-0.006c-0.027-0.059-0.043-0.128-0.043-0.201 0-0 0-0 0-0v0c0-0.106 0.022-0.197 0.065-0.273s0.107-0.136 0.183-0.175l0.003-0.001c0.080-0.042 0.174-0.063 0.28-0.063 0.004-0 0.009-0 0.014-0 0.092 0 0.179 0.023 0.255 0.064l-0.003-0.001c0.141 0.075 0.236 0.22 0.236 0.388 0 0.063-0.013 0.123-0.037 0.177l0.001-0.003c-0.025 0.056-0.058 0.104-0.097 0.145l0-0c-0.043 0.045-0.089 0.086-0.139 0.123l-0.003 0.002-0.141 0.103 0.402 0.474c0.055-0.106 0.088-0.232 0.088-0.365 0-0.005-0-0.010-0-0.015v0.001h0.29c0 0.099-0.010 0.192-0.029 0.28-0.027 0.128-0.079 0.241-0.15 0.338l0.002-0.002 0.297 0.351h-0.389l-0.118-0.139c-0.060 0.046-0.128 0.085-0.203 0.113l-0.005 0.002c-0.092 0.033-0.198 0.053-0.308 0.053-0.003 0-0.005 0-0.008-0h0c-0.135 0-0.251-0.025-0.35-0.074-0.095-0.046-0.173-0.116-0.227-0.201l-0.001-0.002c-0.050-0.082-0.080-0.181-0.080-0.288 0-0.003 0-0.007 0-0.010v0c-0-0.003-0-0.007-0-0.010 0-0.076 0.019-0.147 0.053-0.209l-0.001 0.002c0.035-0.063 0.082-0.122 0.141-0.177 0.055-0.050 0.118-0.099 0.189-0.149zM27.871 29.925l-0.042 0.030c-0.043 0.033-0.079 0.071-0.109 0.114l-0.001 0.002c-0.036 0.053-0.057 0.118-0.057 0.188 0 0.057 0.014 0.11 0.039 0.157l-0.001-0.002c0.027 0.049 0.065 0.088 0.112 0.115l0.001 0.001c0.050 0.027 0.109 0.042 0.172 0.042 0.004 0 0.007-0 0.011-0h-0.001c0.082-0 0.159-0.019 0.228-0.053l-0.003 0.001c0.039-0.020 0.073-0.041 0.104-0.066l-0.001 0.001-0.451-0.531zM27.951 29.554l0.125-0.083c0.050-0.031 0.091-0.069 0.125-0.113l0.001-0.001c0.024-0.038 0.038-0.084 0.038-0.133 0-0.003-0-0.007-0-0.010v0c-0.004-0.109-0.093-0.196-0.202-0.196-0.004 0-0.008 0-0.012 0l0.001-0c-0.002-0-0.004-0-0.006-0-0.083 0-0.154 0.049-0.187 0.119l-0.001 0.001c-0.015 0.034-0.024 0.074-0.024 0.115 0 0.049 0.012 0.095 0.034 0.135l-0.001-0.002c0.021 0.044 0.050 0.090 0.088 0.138l0.023 0.030zM31.505 30.15h-0.349c-0.008 0.083-0.031 0.159-0.066 0.228l0.002-0.004c-0.032 0.060-0.080 0.108-0.139 0.137l-0.002 0.001c-0.064 0.030-0.14 0.048-0.22 0.048-0.008 0-0.015-0-0.022-0l0.001 0c-0.003 0-0.008 0-0.012 0-0.073 0-0.142-0.018-0.202-0.050l0.002 0.001c-0.060-0.034-0.109-0.081-0.144-0.137l-0.001-0.002c-0.038-0.061-0.066-0.133-0.083-0.209l-0.001-0.004c-0.017-0.081-0.027-0.173-0.027-0.268 0-0.004 0-0.007 0-0.011v0.001-0.171c0-0.109 0.010-0.204 0.029-0.288 0.019-0.081 0.050-0.152 0.093-0.215l-0.001 0.002c0.038-0.056 0.088-0.1 0.146-0.13l0.002-0.001c0.058-0.028 0.126-0.045 0.198-0.045 0.004 0 0.008 0 0.012 0h-0.001c0.097 0 0.177 0.017 0.237 0.050s0.106 0.080 0.137 0.143c0.031 0.062 0.052 0.137 0.061 0.224h0.349c-0.012-0.135-0.053-0.257-0.117-0.365l0.002 0.004c-0.062-0.105-0.15-0.189-0.256-0.245l-0.003-0.002c-0.112-0.057-0.244-0.090-0.384-0.090-0.009 0-0.018 0-0.027 0l0.001-0c-0.127 0-0.242 0.023-0.345 0.067s-0.189 0.109-0.261 0.194c-0.073 0.085-0.13 0.186-0.166 0.296l-0.002 0.006c-0.038 0.118-0.057 0.25-0.057 0.396v0.169c0 0.146 0.019 0.278 0.056 0.396s0.093 0.219 0.165 0.303c0.071 0.083 0.158 0.147 0.258 0.193 0.101 0.045 0.214 0.067 0.339 0.067 0.163 0 0.303-0.030 0.417-0.089s0.203-0.141 0.266-0.245c0.063-0.104 0.101-0.223 0.111-0.355zM33.442 29.851v-0.111c0-0.153-0.020-0.291-0.061-0.411-0.038-0.12-0.097-0.224-0.172-0.313l0.001 0.001c-0.072-0.084-0.161-0.15-0.262-0.195l-0.005-0.002c-0.103-0.046-0.217-0.069-0.343-0.069-0.125 0-0.239 0.023-0.342 0.069-0.103 0.045-0.191 0.11-0.267 0.197-0.074 0.086-0.131 0.19-0.173 0.311-0.039 0.117-0.062 0.253-0.062 0.393 0 0.006 0 0.013 0 0.019v-0.001 0.111c0 0.154 0.021 0.291 0.062 0.413 0.040 0.12 0.1 0.223 0.176 0.312l-0.001-0.001c0.075 0.086 0.165 0.151 0.266 0.197 0.103 0.045 0.217 0.067 0.342 0.067s0.24-0.023 0.343-0.067c0.103-0.046 0.192-0.111 0.265-0.197 0.074-0.086 0.131-0.189 0.171-0.311 0.038-0.118 0.060-0.253 0.060-0.394 0-0.007-0-0.014-0-0.020v0.001zM33.093 29.737v0.114c0 0.114-0.011 0.214-0.034 0.302-0.019 0.084-0.052 0.158-0.096 0.224l0.002-0.002c-0.039 0.057-0.091 0.103-0.151 0.134l-0.002 0.001c-0.058 0.028-0.127 0.045-0.199 0.045-0.003 0-0.007-0-0.010-0h0c-0.003 0-0.006 0-0.009 0-0.072 0-0.14-0.016-0.201-0.046l0.003 0.001c-0.063-0.033-0.115-0.079-0.155-0.134l-0.001-0.001c-0.044-0.063-0.077-0.137-0.097-0.217l-0.001-0.005c-0.022-0.086-0.034-0.184-0.034-0.286 0-0.006 0-0.011 0-0.017v0.001-0.114c0-0.113 0.011-0.213 0.034-0.3s0.054-0.16 0.096-0.219c0.040-0.056 0.092-0.102 0.153-0.133l0.002-0.001c0.058-0.029 0.126-0.046 0.199-0.046 0.003 0 0.006 0 0.008 0h-0c0.077 0 0.146 0.015 0.208 0.046s0.113 0.074 0.154 0.134c0.043 0.058 0.075 0.131 0.097 0.219 0.023 0.087 0.034 0.187 0.034 0.3z"></path>
</symbol>
    <symbol id="icon-logo4" viewBox="0 0 59 32">
      <path d="M13.759 12.296h-.002c-1.363 0-2.468.996-2.468 2.225v.002c0 1.229 1.105 2.225 2.468 2.225h.002c1.363 0 2.468-.996 2.468-2.225v-.002c0-1.229-1.105-2.225-2.468-2.225zm18.219-.711c-.004-1.707-.758-3.343-2.096-4.551s-3.153-1.887-5.047-1.891c-1.894.003-3.709.683-5.049 1.89s-2.094 2.844-2.098 4.552v9.414s14.288-1.435 14.289-9.412v-.001zM6.286 24.088c.003 1.188.528 2.326 1.46 3.166s2.194 1.314 3.511 1.317c1.317-.003 2.579-.477 3.511-1.317s1.456-1.978 1.46-3.165v-6.55s-9.942.999-9.942 6.549zm4.971 1.174c-.258 0-.509-.069-.723-.198s-.381-.312-.479-.527-.124-.45-.074-.678c.05-.228.174-.437.356-.601s.414-.276.666-.321c.252-.045.514-.022.752.067s.441.239.584.432a1.093 1.093 0 0 1 .121 1.103 1.164 1.164 0 0 1-.282.382c-.121.109-.265.196-.423.256s-.328.09-.499.09v-.004zm9.091-2.111v2.438h-.502v-2.438h.502zm.971 1.042v.392h-1.108v-.392h1.108zm.117-1.042v.393h-1.225v-.393h1.225zm2.294 1.162v.116c0 .185-.025.352-.075.499s-.121.273-.213.377a.919.919 0 0 1-.328.236 1.039 1.039 0 0 1-.42.082c-.153 0-.293-.027-.42-.082a.946.946 0 0 1-.328-.236 1.09 1.09 0 0 1-.216-.377 1.548 1.548 0 0 1-.075-.499v-.116c0-.186.025-.353.075-.499.05-.147.121-.273.213-.377a.938.938 0 0 1 .328-.238c.127-.055.267-.082.42-.082.154 0 .294.027.42.082a.912.912 0 0 1 .328.238c.093.104.164.229.214.377.051.146.077.312.077.499zm-.508.116v-.119c0-.13-.012-.243-.035-.342s-.058-.181-.104-.248a.46.46 0 0 0-.393-.203.458.458 0 0 0-.392.203c-.045.067-.079.15-.102.248s-.035.212-.035.342v.119c0 .128.012.242.035.341a.744.744 0 0 0 .104.249c.046.067.102.118.167.152s.141.052.226.052a.454.454 0 0 0 .392-.204.764.764 0 0 0 .102-.249c.023-.099.035-.213.035-.341zm2.138.522a.326.326 0 0 0-.02-.117.221.221 0 0 0-.07-.097c-.035-.03-.083-.06-.146-.089s-.143-.059-.243-.09a3.168 3.168 0 0 1-.315-.121 1.28 1.28 0 0 1-.261-.156.688.688 0 0 1-.177-.209.58.58 0 0 1-.064-.276c0-.102.022-.194.067-.276a.63.63 0 0 1 .188-.214.88.88 0 0 1 .285-.139 1.3 1.3 0 0 1 .363-.049c.18 0 .337.032.47.097s.238.154.311.266a.683.683 0 0 1 .112.387h-.499a.382.382 0 0 0-.045-.188.304.304 0 0 0-.134-.129.48.48 0 0 0-.224-.047.518.518 0 0 0-.218.04.297.297 0 0 0-.131.105.262.262 0 0 0-.044.147c0 .041.01.079.03.112.021.034.052.065.094.094s.092.056.152.082c.06.026.13.051.209.075.133.04.249.085.35.136.102.05.186.107.254.169a.624.624 0 0 1 .206.483c0 .106-.021.201-.062.285s-.101.155-.179.213c-.078.058-.171.102-.28.132s-.229.045-.363.045a1.4 1.4 0 0 1-.357-.047 1.072 1.072 0 0 1-.32-.146c-.095-.065-.171-.147-.228-.248s-.085-.219-.085-.357h.504c0 .076.012.14.035.192s.056.095.099.127a.426.426 0 0 0 .154.07c.06.015.126.022.198.022a.527.527 0 0 0 .214-.037.272.272 0 0 0 .126-.102.268.268 0 0 0 .042-.147zm1.934-1.8v2.438h-.501v-2.438h.501zm.75 0v.393h-1.989v-.393h1.989zm1.922 2.046v.392h-1.297v-.392h1.297zm-1.134-2.046v2.438h-.502v-2.438h.502zm.965.993v.382h-1.128v-.382h1.128zm.167-.993v.393h-1.296v-.393h1.296zm.295 0h.909c.186 0 .346.028.48.084.135.056.239.138.311.248s.109.244.109.403a.773.773 0 0 1-.067.337.63.63 0 0 1-.186.233.965.965 0 0 1-.28.147l-.159.084h-.79l-.003-.392h.588c.088 0 .161-.016.219-.047s.102-.075.131-.131a.403.403 0 0 0 .045-.194c0-.078-.015-.146-.044-.203s-.073-.1-.132-.131-.133-.045-.223-.045h-.407v2.044h-.502V23.15zm1.362 2.438-.556-1.086.531-.003.562 1.066v.023h-.537zm2.637-.869h-.621v-.392h.621a.51.51 0 0 0 .234-.047c.06-.032.104-.077.132-.134s.042-.121.042-.192c0-.073-.014-.14-.042-.203s-.072-.113-.132-.151-.138-.057-.234-.057h-.447v2.044h-.502V23.15h.949c.191 0 .354.035.49.104a.742.742 0 0 1 .424.696c0 .157-.036.294-.109.408s-.177.204-.315.266c-.136.062-.3.094-.49.094zm2.896.477v.392h-1.297v-.392h1.297zm-1.133-2.046v2.438h-.502v-2.438h.502zm.964.993v.382h-1.128v-.382h1.128zm.168-.993v.393h-1.296v-.393h1.296zm1.418 0v2.438h-.501v-2.438h.501zm.75 0v.393h-1.989v-.393h1.989zm1.921 2.046v.392h-1.297v-.392h1.297zm-1.133-2.046v2.438h-.502v-2.438h.502zm.964.993v.382h-1.128v-.382h1.128zm.168-.993v.393h-1.296v-.393h1.296zm.294 0h.909c.186 0 .347.028.48.084.135.056.239.138.311.248s.109.244.109.403a.773.773 0 0 1-.067.337.63.63 0 0 1-.186.233.965.965 0 0 1-.28.147l-.159.084h-.79l-.003-.392h.588c.088 0 .161-.016.219-.047s.102-.075.131-.131a.403.403 0 0 0 .045-.194c0-.078-.014-.146-.044-.203s-.073-.1-.132-.131a.489.489 0 0 0-.223-.045h-.407v2.044h-.502V23.15zm1.363 2.438-.556-1.086.531-.003.563 1.066v.023h-.537zm2.103-.638a.326.326 0 0 0-.02-.117.221.221 0 0 0-.07-.097c-.035-.03-.083-.06-.146-.089s-.143-.059-.243-.09a3.076 3.076 0 0 1-.315-.121 1.28 1.28 0 0 1-.261-.156.58.58 0 0 1-.242-.485c0-.102.022-.194.067-.276a.63.63 0 0 1 .188-.214.88.88 0 0 1 .285-.139c.111-.032.232-.049.363-.049.18 0 .337.032.47.097s.238.154.311.266a.683.683 0 0 1 .112.387h-.499a.382.382 0 0 0-.045-.188.304.304 0 0 0-.134-.129.48.48 0 0 0-.224-.047.518.518 0 0 0-.218.04.297.297 0 0 0-.131.105.262.262 0 0 0-.044.147c0 .041.01.079.03.112.021.034.052.065.094.094s.092.056.152.082c.06.026.13.051.209.075.133.04.249.085.35.136.102.05.186.107.254.169a.624.624 0 0 1 .206.483c0 .106-.021.201-.062.285s-.101.155-.179.213c-.078.058-.171.102-.28.132s-.229.045-.363.045a1.4 1.4 0 0 1-.357-.047 1.072 1.072 0 0 1-.32-.146c-.095-.065-.171-.147-.228-.248s-.085-.219-.085-.357h.504c0 .076.012.14.035.192s.056.095.099.127a.426.426 0 0 0 .154.07c.06.015.126.022.198.022a.527.527 0 0 0 .214-.037.272.272 0 0 0 .126-.102.268.268 0 0 0 .042-.147z"/>
    </symbol>
    <symbol id="icon-logo5" viewBox="0 0 59 32">
      <path d="M15.31 25.356c.14.156.215.352.211.553.007.131-.019.262-.075.383s-.143.229-.252.316c-.273.185-.61.276-.951.255h-1.671v-3.504h1.637c.323-.019.644.063.907.233.106.08.189.18.245.294s.08.238.073.361a.76.76 0 0 1-.19.536.91.91 0 0 1-.498.274.975.975 0 0 1 .565.3zm-1.961-.529h.7a.719.719 0 0 0 .445-.116c.053-.043.093-.096.12-.155s.037-.123.031-.187a.397.397 0 0 0-.148-.342.733.733 0 0 0-.458-.118h-.688v.919zm1.213 1.344c.056-.044.1-.099.129-.161s.041-.129.036-.195c.004-.068-.009-.135-.038-.198s-.074-.118-.131-.162a.786.786 0 0 0-.475-.127h-.734v.964h.744a.794.794 0 0 0 .47-.122zm4.094.691-.911-1.369h-.342v1.369h-.783v-3.504h1.483c.374-.023.744.083 1.033.298.207.19.332.441.353.707s-.066.529-.242.743a1.245 1.245 0 0 1-.707.356l.97 1.4h-.852zm-1.253-1.847h.641c.445 0 .667-.177.667-.531.005-.072-.008-.145-.036-.212s-.072-.13-.128-.181a.75.75 0 0 0-.504-.142h-.648l.008 1.067zm5.536 1.142h-1.561l-.276.705h-.821l1.434-3.465h.888l1.428 3.465h-.822l-.27-.705zm-.209-.53-.57-1.479-.57 1.479h1.141zm5.569 1.236h-.778l-1.744-2.383v2.383h-.776v-3.504h.776l1.744 2.397v-2.397h.778v3.504zm4.438-.839c-.161.265-.406.48-.704.618a2.5 2.5 0 0 1-1.093.221h-1.384v-3.504h1.384c.378-.009.754.065 1.093.216.298.135.543.348.704.611.16.285.243.6.243.919s-.083.634-.243.919zm-.89-.084c.222-.233.344-.529.344-.836s-.122-.603-.344-.836a1.448 1.448 0 0 0-.974-.298h-.54v2.268h.54c.355.02.705-.087.974-.298zM23.425 3.867s10.038 3.412 9.825 8.349v8.351s-10.031-3.413-9.821-8.351l-.004-8.349zm18.769 14.744c1.896-1.175 4.089-1.902 6.378-2.116v-2.614c-2.638.915-4.875 2.575-6.378 4.73z"/>
      <path d="M41.055 19.399c1.552-2.813 4.242-4.983 7.517-6.065V5.802s-14.296 4.86-13.993 11.891v11.889s.637-.217 1.639-.625c0-.38 0-.764.046-1.149.296-3.264 2.02-6.289 4.792-8.409z"/>
      <path d="M39.695 23.815c.075-.825.243-1.64.5-2.434-1.726 1.831-2.772 4.103-2.989 6.497-.021.226-.032.452-.038.685a43.581 43.581 0 0 0 2.75-1.304 11.103 11.103 0 0 1-.222-3.443zm.569.043a10.594 10.594 0 0 0 .177 3.117c3.906-2.104 8.294-5.355 8.125-9.284v-.342c-2.791.281-5.401 1.379-7.431 3.126a10.75 10.75 0 0 0-.871 3.383z"/>
    </symbol>
    <symbol id="icon-logo6" viewBox="0 0 59 32">
      <path d="M30.588 15.682a1.685 1.685 0 0 1-.346-1.138v-1.65c0-.506.115-.89.344-1.153s.624-.394 1.183-.393c.525 0 .898.112 1.119.336.24.286.358.635.331.987v.388h-.94v-.393a2.056 2.056 0 0 0-.027-.384.373.373 0 0 0-.134-.228.541.541 0 0 0-.34-.089.577.577 0 0 0-.358.094.443.443 0 0 0-.156.252 1.93 1.93 0 0 0-.037.408v2.003c-.015.193.027.387.121.562.047.06.112.107.188.136s.16.041.242.032c.12.009.24-.024.333-.091a.4.4 0 0 0 .14-.243 2.16 2.16 0 0 0 .029-.401v-.406h.94v.371c.026.367-.088.732-.325 1.038-.216.245-.584.368-1.125.368s-.949-.131-1.181-.403zm3.913.017c-.237-.257-.356-.631-.356-1.127v-1.736c0-.49.119-.861.356-1.113s.634-.377 1.191-.376c.553 0 .947.125 1.185.376.237.252.358.623.358 1.113v1.736c0 .49-.121.866-.362 1.125s-.634.388-1.181.388-.951-.131-1.191-.386zm1.628-.417a.968.968 0 0 0 .113-.514v-2.125a.943.943 0 0 0-.111-.504c-.048-.061-.114-.109-.192-.138s-.164-.04-.248-.03c-.084-.01-.17 0-.248.03s-.145.077-.193.138a.922.922 0 0 0-.113.504v2.136a.95.95 0 0 0 .113.514.576.576 0 0 0 .198.127.68.68 0 0 0 .484 0 .59.59 0 0 0 .198-.127v-.01zm2.235-3.884h1.012l.761 3.203.778-3.203h.984l.099 4.623h-.728l-.078-3.213-.751 3.213h-.584l-.778-3.225-.072 3.225h-.735l.091-4.623zm4.769 0h1.576c.908 0 1.362.438 1.362 1.313 0 .838-.478 1.257-1.434 1.256H44.1v2.055h-.973l.006-4.623zm1.346 1.976c.096.011.194.003.286-.022s.177-.067.249-.124a.744.744 0 0 0 .14-.522 1.457 1.457 0 0 0-.047-.42c-.014-.046-.038-.089-.072-.127s-.075-.069-.123-.093a1.012 1.012 0 0 0-.434-.074h-.377v1.382h.377zm2.995-1.976h1.045l1.072 4.623h-.907l-.212-1.066h-.932l-.218 1.066h-.92l1.072-4.623zm.893 3.021-.364-1.941-.364 1.941h.728zm2.089-3.021h.681l1.304 2.637v-2.637h.807v4.623H52.6l-1.311-2.753v2.753h-.835l.002-4.623zm4.683 2.86-1.084-2.854h.912l.661 1.833.621-1.833h.893l-1.07 2.854v1.763h-.934v-1.763zM32.09 18.042v.242h-.794v1.879h-.333v-1.879h-.798v-.242h1.924zm2.488 2.121h-.257a.119.119 0 0 1-.072-.02.113.113 0 0 1-.043-.049l-.23-.504h-1.101l-.23.504a.136.136 0 0 1-.035.057.119.119 0 0 1-.072.02h-.257l.973-2.12h.339l.984 2.112zm-1.61-.788h.918l-.389-.863a1.447 1.447 0 0 1-.072-.2l-.037.113-.035.089-.385.861zm3.288.579c.061.003.122.003.183 0 .053-.005.105-.013.156-.025.048-.01.094-.023.14-.039.043-.015.086-.034.13-.052v-.477h-.389a.086.086 0 0 1-.028-.004.07.07 0 0 1-.039-.03.038.038 0 0 1-.005-.021v-.163h.755v.813a1.497 1.497 0 0 1-.654.217 2.687 2.687 0 0 1-.284.013 1.497 1.497 0 0 1-.49-.079 1.178 1.178 0 0 1-.389-.222 1.028 1.028 0 0 1-.251-.336 1.07 1.07 0 0 1-.09-.44 1.099 1.099 0 0 1 .088-.443.97.97 0 0 1 .251-.336 1.19 1.19 0 0 1 .389-.22c.167-.054.343-.081.521-.079.091 0 .181.006.27.018a1.303 1.303 0 0 1 .427.138c.06.033.116.07.169.111l-.093.131c-.007.012-.018.022-.032.029s-.029.011-.044.011a.123.123 0 0 1-.06-.017 1.127 1.127 0 0 1-.095-.05.947.947 0 0 0-.13-.057 1.208 1.208 0 0 0-.426-.065 1.165 1.165 0 0 0-.376.059.835.835 0 0 0-.286.168.734.734 0 0 0-.181.264.99.99 0 0 0 0 .707c.043.1.109.191.195.267.08.073.177.13.284.168.124.037.255.051.385.042zm3.101-.033h1.062v.242h-1.387v-2.12h.333l-.008 1.879zm2.167.241h-.333v-2.12h.333v2.12zm1.237-2.11c.02.01.037.023.051.039l1.422 1.598a.482.482 0 0 1 0-.076v-1.58h.29v2.129h-.167a.146.146 0 0 1-.072-.012.211.211 0 0 1-.053-.04l-1.42-1.597v1.649h-.278v-2.12h.173a.14.14 0 0 1 .054.01zm4.213-.01v.233h-1.179v.7h.955v.225h-.955v.724h1.179v.233h-1.521v-2.115h1.521zM12.112 4.948l14.772 3.619V21.25l-14.772-3.618V4.947zm-.948-1.081v14.382l16.666 4.084V7.953L11.164 3.867z"/>
      <path d="M20.096 29.01 3.429 24.922V10.541l16.667 4.086v14.382z"/>
      <path d="m11.44 4.785 14.58 3.574-6.2 5.352-14.582-3.576 6.202-5.35zm-.276-.918-7.735 6.675 16.667 4.086 7.733-6.675-16.666-4.086zm9.87 24.334 6.796-5.866-6.796-1.667V28.2z"/>
    </symbol>
    <symbol id="icon-twitter" viewBox="0 0 32 32">
      <path fill="#f4f4fd" d="M32 6.078c-1.19.522-2.458.868-3.78 1.036a6.523 6.523 0 0 0 2.886-3.626 13.11 13.11 0 0 1-4.16 1.588A6.574 6.574 0 0 0 22.154 3c-3.632 0-6.556 2.948-6.556 6.562 0 .52.044 1.02.152 1.496-5.454-.266-10.28-2.88-13.522-6.862a6.605 6.605 0 0 0-.898 3.316 6.57 6.57 0 0 0 2.914 5.452 6.479 6.479 0 0 1-2.964-.808v.072c0 3.188 2.274 5.836 5.256 6.446a6.548 6.548 0 0 1-1.72.216 5.8 5.8 0 0 1-1.242-.112c.85 2.598 3.262 4.508 6.13 4.57a13.182 13.182 0 0 1-8.134 2.798c-.538 0-1.054-.024-1.57-.09A18.469 18.469 0 0 0 10.064 29c12.072 0 18.672-10 18.672-18.668 0-.29-.01-.57-.024-.848A13.087 13.087 0 0 0 32 6.078z" style="fill:var(--color3, #f4f4fd)"/>
    </symbol>
    <symbol id="icon-email-black" viewBox="0 0 24 32">
      <path d="M20 8H4c-1.1 0-1.99.9-1.99 2L2 22c0 1.1.9 2 2 2h16c1.1 0 2-.9 2-2V10c0-1.1-.9-2-2-2zm-.4 4.25-7.07 4.42c-.32.2-.74.2-1.06 0L4.4 12.25a.85.85 0 1 1 .9-1.44L12 15l6.7-4.19a.85.85 0 1 1 .9 1.44z"/>
    </symbol>
    <symbol id="icon-icon-send" viewBox="0 0 38 32">
      <path d="M38.4 0 0 18l12.272 3.788L31.2 7 16.803 23.186l.012.004-.014-.004V32l6.882-6.691L32.401 28l6-28z"/>
    </symbol>
    <symbol id="icon-person-black" viewBox="0 0 32 32">
      <path d="M16 16c2.947 0 5.333-2.387 5.333-5.333S18.946 5.334 16 5.334c-2.947 0-5.333 2.387-5.333 5.333S13.054 16 16 16zm0 2.667c-3.56 0-10.667 1.787-10.667 5.333v1.333c0 .733.6 1.333 1.333 1.333h18.667c.733 0 1.333-.6 1.333-1.333V24c0-3.547-7.107-5.333-10.667-5.333z"/>
    </symbol>
    <symbol id="icon-phone-black" viewBox="0 0 24 32">
      <path d="m19.635 18.487-2.451-.28a1.92 1.92 0 0 0-1.582.55l-1.775 1.775a14.514 14.514 0 0 1-6.359-6.359l1.785-1.785c.415-.415.618-.994.55-1.582l-.28-2.432a1.931 1.931 0 0 0-1.92-1.708H5.934c-1.09 0-1.997.907-1.93 1.997.511 8.24 7.102 14.821 15.332 15.332 1.09.068 1.997-.839 1.997-1.93v-1.669a1.913 1.913 0 0 0-1.698-1.911z"/>
    </symbol>
    <symbol id="icon-checkbox-click" viewBox="0 0 40 32">
      <path d="M33.782 1.02a3.668 3.668 0 0 1 5.115.039 3.712 3.712 0 0 1 .135 5.141L19.454 30.817a3.674 3.674 0 0 1-4.074.914 3.675 3.675 0 0 1-1.226-.815L1.17 17.862A3.693 3.693 0 0 1-.001 15.22a3.714 3.714 0 0 1 1.077-2.682 3.664 3.664 0 0 1 4.1-.763 3.68 3.68 0 0 1 1.195.857l10.275 10.325 17.042-21.83c.031-.038.063-.074.098-.109h-.005z"/>
    </symbol>
    <symbol id="icon-charm_menu-hamburger-1" viewBox="0 0 47 32">
      <path stroke-linejoin="round" stroke-linecap="round" stroke-miterlimit="4" stroke-width="4.3636" d="M1.96 29.154h42.965M1.96 15.615h42.965M1.96 2.077h42.965"></path>
    </symbol>
  </defs>
</svg>
